<svg xmlns="http://www.w3.org/2000/svg" viewBox="0 0 512 512">
    <path class="cls-2" fill="currentColor"
        d="M272.21,507.66,495.78,378.58a32.43,32.43,0,0,0,11.87-44.29l-35-60.59a32.42,32.42,0,0,0-44.29-11.87L272.21,352a32.43,32.43,0,0,1-32.42,0L83.62,261.83A32.42,32.42,0,0,0,39.33,273.7l-35,60.59a32.43,32.43,0,0,0,11.87,44.29L239.79,507.66A32.43,32.43,0,0,0,272.21,507.66Z" />
    <path class="cls-2" fill="currentColor"
        d="M272.21,250.17,495.78,121.09a32.41,32.41,0,0,0,11.87-44.28l-35-60.59A32.42,32.42,0,0,0,428.38,4.35L272.21,94.51a32.38,32.38,0,0,1-32.42,0L83.62,4.35A32.42,32.42,0,0,0,39.33,16.22l-35,60.59a32.41,32.41,0,0,0,11.87,44.28L239.79,250.17A32.38,32.38,0,0,0,272.21,250.17Z" />
</svg>