<svg xmlns="http://www.w3.org/2000/svg" viewBox="0 0 512 512">
    <path fill="currentColor"
        d="M490.67,64H398.22V24c0-13.3-9.51-24-21.33-24H135.11c-11.82,0-21.33,10.7-21.33,24V64H21.33C9.51,64,0,74.7,0,88v56c0,35.7,20,72.4,55,100.7a195.07,195.07,0,0,0,97.78,41.7c27.91,52.1,60.53,73.6,60.53,73.6v76H170.67c-31.38,0-56.89,20.7-56.89,56v8c0,6.6,4.8,12,10.66,12H387.56c5.86,0,10.66-5.4,10.66-12v-8c0-35.3-25.51-56-56.89-56H298.67V360s32.62-21.5,60.53-73.6A194.4,194.4,0,0,0,457,244.7c34.93-28.3,55-65,55-100.7V88C512,74.7,502.49,64,490.67,64ZM88.27,192.8C66.58,175.2,56.89,155.6,56.89,144V123H114c.88,32.6,5.15,66.2,11.37,91.2A138.14,138.14,0,0,1,88.27,192.8ZM455.11,144c0,16.1-15.73,36.1-31.38,48.8a138.65,138.65,0,0,1-37.15,21.4c6.22-25,10.49-58.6,11.38-91.2h57.15Z" />
</svg>